# xmcd
#
# Track frame offsets: 
#        150
#        13940
#        27942
#        42272
#        56125
#        70104
#        83328
#        99026
#        113533
#        129717
#        146265
#        162678
#        179482
#        193223
#        207744
#        223776
#        240121
#        254426
#        266757
#        279043
#        290902
#        304950
#        315923
#        329261
#
# Disc length: 4541 seconds
#
# Revision: 0
# Processed by: cddbd v1.5.2PL0 Copyright (c) Steve Scherf et al.
# Submitted via: ExactAudioCopy v0.95b4
#
DISCID=6211bb18
DTITLE=Leroy Carr and Scrapper Blackwell - How Long Has That Evening Tra
DTITLE=in Been Gone  (D)
DYEAR=2008
DGENRE=Pre-War Blues
TTITLE0=Gone Mother Blues 
TTITLE1=Midnight Hour Blues 
TTITLE2=Moonlight Blues 
TTITLE3=The Depression Blues 
TTITLE4=Mean Mistreater Mama 
TTITLE5=Mean Mistreater Mama
TTITLE6=Mean Mistreater Mama No. 2
TTITLE7=Court Room Blues
TTITLE8=Hurry Down Blues
TTITLE9=Corn Licker Blues 
TTITLE10=Hold Them Puppies
TTITLE11=Shady Lane Blues
TTITLE12=Blues She Gave Me 
TTITLE13=You Can't Run My Business No More 
TTITLE14=Blues Before Sunrise 
TTITLE15=Blues Before Sunrise
TTITLE16=Ain't Got No Money Now
TTITLE17=Sometimes I Feel Like A Motherless Child 
TTITLE18=Sometimes I Feel Like A Motherless Child 
TTITLE19=Stormy Night Blues
TTITLE20=Take A Walk Round The Corner 
TTITLE21=Baby Come Back To Me 
TTITLE22=Blue Night Blues 
TTITLE23=My Woman's Gone Wrong
EXTD=
EXTT0=
EXTT1=
EXTT2=
EXTT3=
EXTT4=
EXTT5=
EXTT6=
EXTT7=
EXTT8=
EXTT9=
EXTT10=
EXTT11=
EXTT12=
EXTT13=
EXTT14=
EXTT15=
EXTT16=
EXTT17=
EXTT18=
EXTT19=
EXTT20=
EXTT21=
EXTT22=
EXTT23=
PLAYORDER=
